<svg width="245" height="72" viewBox="0 0 245 72" fill="none" xmlns="http://www.w3.org/2000/svg">
<g clip-path="url(#clip0_1_1475)">
<path d="M45.8167 38.4299C45.8167 34.4112 43.2055 31.8006 39.9837 31.8006C36.7618 31.8006 34.1506 34.2118 34.1506 38.4299C34.1506 42.4486 36.768 45.0654 39.9837 45.0654C43.1993 45.0654 45.8167 42.6542 45.8167 38.4299ZM25.0957 38.4299C25.0957 30.3925 31.3276 24.5608 39.9837 24.5608C48.6397 24.5608 54.8716 30.3925 54.8716 38.4299C54.8716 46.4673 48.6397 52.2991 39.9837 52.2991C31.3276 52.2991 25.0957 46.4798 25.0957 38.4299Z" fill="#227744"/>
<path d="M199.937 25.3707H208.787V44.866H220.658V51.7009H199.937V25.3707Z" fill="#8ADD66"/>
<path d="M152.656 51.7009V39.6386L147.022 49.2897H143.196L137.562 40.0436V51.7009H129.517V25.3707H136.759L145.408 39.4392L153.859 25.3707H161.106V51.7009H152.656Z" fill="#8ADD66"/>
<path d="M9.19814 32V36.4237H20.266V43.0592H9.19814V51.4953H0.348877V25.3707H21.8738V32H9.19814Z" fill="#227744"/>
<path d="M104.191 44.6604C108.011 44.6604 110.423 42.4486 110.423 38.4299C110.423 34.4112 107.805 32.1994 104.191 32.1994H100.371V44.6604H104.191ZM91.5151 25.3458H104.602C113.451 25.3458 119.49 30.3738 119.49 38.6106C119.49 46.8473 113.451 51.8816 104.602 51.8816H91.5151V25.3458Z" fill="#227744"/>
<path d="M182.831 40.6417L180.22 34.0187L177.602 40.6542L182.831 40.6417ZM185.249 47.1028H175.19L173.364 51.6947H164.322L175.789 25.3645H184.445L195.911 51.6947H186.657L185.249 47.1028Z" fill="#8ADD66"/>
<path d="M78.8146 38.4299C78.8146 34.4112 76.1973 31.8006 72.9816 31.8006C69.766 31.8006 67.1486 34.2118 67.1486 38.4299C67.1486 42.4486 69.7597 45.0654 72.9816 45.0654C76.2035 45.0654 78.8146 42.6542 78.8146 38.4299ZM58.0936 38.4299C58.0936 30.3925 64.3255 24.5608 72.9816 24.5608C81.6377 24.5608 87.8696 30.3925 87.8696 38.4299C87.8696 46.4673 81.6377 52.2991 72.9816 52.2991C64.3255 52.2991 58.075 46.4798 58.075 38.4299H58.0936Z" fill="#227744"/>
<path d="M224.279 25.3707H233.135V44.866H245V51.7009H224.279V25.3707Z" fill="#8ADD66"/>
<path d="M-8.87159e-05 63.3022H2.21223C3.54585 63.3022 4.50556 63.8816 4.50556 65.2897C4.52704 65.6104 4.44714 65.9298 4.27716 66.2026C4.10717 66.4754 3.85571 66.6879 3.55832 66.81C4.356 66.9844 4.80469 67.5763 4.80469 68.6231C4.80469 70.4922 3.81382 71.028 2.06266 71.028H-0.03125L-8.87159e-05 63.3022ZM1.37092 69.7695H2.11252C3.00368 69.7695 3.35889 69.5639 3.35889 68.6542C3.35889 67.9065 3.10962 67.5514 2.11252 67.5514H1.36469L1.37092 69.7695ZM1.37092 64.5421V66.2742H2.21223C2.32852 66.2776 2.4442 66.256 2.55139 66.2108C2.65858 66.1655 2.75477 66.0978 2.83341 66.012C2.91205 65.9263 2.97131 65.8247 3.00714 65.714C3.04298 65.6033 3.05455 65.4863 3.04107 65.3707C3.05441 65.2576 3.04171 65.1429 3.00396 65.0354C2.9662 64.928 2.90438 64.8305 2.82322 64.7506C2.74205 64.6706 2.64369 64.6103 2.53564 64.5742C2.42759 64.538 2.3127 64.527 2.19976 64.5421H1.37092Z" fill="#848484"/>
<path d="M10.5818 71.0218V63.3022H11.9902V65.6698H12.5324C14.3645 65.6698 15.2682 66.4112 15.2682 68.0062V68.7165C15.2682 70.3551 14.3957 71.028 12.5324 71.028L10.5818 71.0218ZM11.984 66.9595V69.7819H12.5822C13.6541 69.7819 13.8847 69.3707 13.8847 68.6418V68.081C13.8847 67.3458 13.5544 66.9595 12.5635 66.9595H11.984ZM16.527 63.296H17.9416V71.0218H16.527V63.296Z" fill="#848484"/>
<path d="M28.0871 64.5483H25.2516V66.2056H25.9808C27.707 66.2056 28.7165 66.7664 28.7165 68.6044C28.7165 70.4424 27.707 71.0031 25.9808 71.0031H23.8806V63.3022H28.0871V64.5483ZM26.0057 67.4704H25.2516V69.7445H26.0057C26.8844 69.7445 27.2521 69.514 27.2521 68.6044C27.2521 67.6947 26.9031 67.4704 26.0057 67.4704Z" fill="#848484"/>
<path d="M34.3501 68.7913V65.5265C34.3501 63.8941 35.0605 63.2212 36.9239 63.2212C38.7872 63.2212 39.5599 63.8941 39.5599 65.5265V68.7913C39.5599 70.3801 38.756 71.0903 36.9239 71.0903C35.0917 71.0903 34.3501 70.3801 34.3501 68.7913ZM38.1765 68.7165V65.6012C38.1765 64.9034 37.9958 64.4486 36.9301 64.4486C35.8645 64.4486 35.7398 64.9034 35.7398 65.6012V68.7165C35.7398 69.4517 35.9268 69.8692 36.9301 69.8692C37.9334 69.8692 38.1765 69.4517 38.1765 68.7165Z" fill="#848484"/>
<path d="M47.4806 63.3022C49.3502 63.3022 50.2164 63.9689 50.2164 65.6013V66.3115C50.2164 67.9065 49.319 68.648 47.4806 68.648H46.9509V71.0093H45.5425V63.3022H47.4806ZM47.4806 67.3146C48.4839 67.3146 48.8142 66.972 48.8142 66.243V65.676C48.8142 64.9408 48.5774 64.5608 47.5055 64.5608H46.9447V67.3146H47.4806Z" fill="#848484"/>
<path d="M68.2701 63.3147V64.5171H65.2165V66.4985H67.8214V67.7383H65.2165V69.7757H68.4134V71.0343H63.833V63.3147H68.2701Z" fill="#848484"/>
<path d="M79.2633 68.6418C79.2633 70.3302 78.4594 71.0405 76.6272 71.0405C74.795 71.0405 74.0535 70.3302 74.0535 68.7414V65.6262C74.0535 63.9938 74.7639 63.3209 76.6272 63.3209C78.4905 63.3209 79.2633 64 79.2633 65.7134H77.8798C77.8798 64.9595 77.6991 64.5421 76.6334 64.5421C75.5678 64.5421 75.4432 64.9595 75.4432 65.6947V68.6854C75.4432 69.4206 75.6301 69.838 76.6334 69.838C77.6368 69.838 77.8798 69.4206 77.8798 68.6604L79.2633 68.6418Z" fill="#848484"/>
<path d="M89.0287 64.5296H87.4395V71.028H86.0623V64.5296H84.4607V63.2959H89.0287V64.5296Z" fill="#848484"/>
<path d="M94.4878 71.0218V63.3022H95.9024V65.6698H96.4446C98.2768 65.6698 99.1742 66.4112 99.1742 68.0062V68.7165C99.1742 70.3551 98.3079 71.028 96.4446 71.028L94.4878 71.0218ZM95.89 66.9595V69.7819H96.4633C97.5352 69.7819 97.7658 69.3707 97.7658 68.6418V68.081C97.7658 67.3458 97.4355 66.9595 96.4446 66.9595H95.89Z" fill="#848484"/>
<path d="M114 67.053H105.917V68.2056H114V67.053Z" fill="#848484"/>
<path d="M126.526 63.19V64.3925H123.472V66.3738H126.071V67.6137H123.472V69.6511H126.663V70.9097H122.089V63.19H126.526Z" fill="#848484"/>
<path d="M137.513 68.5171C137.513 70.2056 136.715 70.9159 134.883 70.9159C133.051 70.9159 132.309 70.2056 132.309 68.6168V65.5016C132.309 63.8692 133.02 63.1963 134.883 63.1963C136.746 63.1963 137.513 63.8754 137.513 65.5888H136.129C136.129 64.8349 135.948 64.4174 134.883 64.4174C133.817 64.4174 133.686 64.8349 133.686 65.5701V68.5608C133.686 69.296 133.88 69.7134 134.883 69.7134C135.886 69.7134 136.129 69.296 136.129 68.5358L137.513 68.5171Z" fill="#848484"/>
<path d="M147.278 64.405H145.689V70.9034H144.318V64.405H142.716V63.1713H147.278V64.405Z" fill="#848484"/>
<path d="M152.743 70.8972V63.1713H154.158V65.5389H154.669C156.501 65.5389 157.405 66.2804 157.405 67.8754V68.5857C157.405 70.2243 156.532 70.8972 154.669 70.8972H152.743ZM154.146 66.8349V69.6573H154.713C155.785 69.6573 156.015 69.2461 156.015 68.5171V67.9564C156.015 67.2212 155.685 66.8349 154.694 66.8349H154.146Z" fill="#848484"/>
<path d="M173.926 70.9284V69.9439H173.651C171.819 69.9439 170.916 69.2586 170.916 67.6511V66.405C170.916 64.7726 171.788 64.1122 173.651 64.1122H173.932V63.1153H175.315V64.081H175.596C177.465 64.081 178.331 64.7414 178.331 66.3738V67.6199C178.331 69.2274 177.415 69.9128 175.596 69.9128H175.328V70.8972L173.926 70.9284ZM173.926 65.3209H173.626C172.567 65.3209 172.311 65.7321 172.311 66.4673V67.6012C172.311 68.3302 172.654 68.7041 173.645 68.7041H173.926V65.3209ZM175.589 68.7041C176.593 68.7041 176.923 68.3302 176.923 67.6012V66.4673C176.923 65.7321 176.68 65.3209 175.608 65.3209H175.309V68.7041H175.589Z" fill="#848484"/>
<path d="M188.944 63.1713L186.769 69.6885C186.358 70.9969 185.38 71.1589 184.065 70.7352L184.339 69.5763C184.707 69.6573 185.249 69.8069 185.398 69.2835L185.598 68.6168L183.728 63.1713H185.205L185.747 64.9408L186.327 66.8847C186.489 66.2305 186.732 65.5888 186.907 64.9408L187.492 63.1713H188.944Z" fill="#848484"/>
<path d="M194.266 69.676C194.84 69.0156 194.939 67.6822 194.939 66.8536V63.1651H199.134V69.676H199.838V72.0249H198.535V70.9221H195.027V72.0249H193.73V69.7009L194.266 69.676ZM196.292 66.8536C196.333 67.8325 196.118 68.8053 195.669 69.676H197.781V64.3987H196.31L196.292 66.8536Z" fill="#848484"/>
<path d="M208.213 69.0779L206.68 65.9751L206.836 68.1745V70.9034H205.459V63.19H206.786L208.363 66.6044L209.939 63.19H211.273V70.9034H209.89V68.1745L210.052 65.9751L208.519 69.0779H208.213Z" fill="#848484"/>
<path d="M217.237 68.6667V65.4019C217.237 63.7695 217.947 63.0966 219.811 63.0966C221.674 63.0966 222.447 63.7695 222.447 65.4019V68.6667C222.447 70.2555 221.643 70.9657 219.811 70.9657C217.979 70.9657 217.237 70.2555 217.237 68.6667ZM221.063 68.5919V65.4766C221.063 64.7788 220.883 64.324 219.817 64.324C218.751 64.324 218.627 64.7788 218.627 65.4766V68.5919C218.627 69.3271 218.814 69.7445 219.817 69.7445C220.82 69.7445 221.063 69.3271 221.063 68.5919Z" fill="#848484"/>
<path d="M233.627 70.8972H232.243V64.4299H230.43L230.361 67.3146C230.311 69.4766 230.068 71.1277 227.794 70.8972L227.844 69.5452C229.059 69.6449 228.978 68.2056 228.996 67.3146L229.065 63.1651H233.627V70.8972Z" fill="#848484"/>
<path d="M244.875 70.8972H243.492V64.4299H241.678L241.61 67.3146C241.56 69.4766 241.317 71.1277 239.042 70.8972L239.092 69.5452C240.307 69.6449 240.226 68.2056 240.245 67.3146L240.314 63.1651H244.875V70.8972Z" fill="#848484"/>
<path d="M124.027 24.1869C124.32 23.8407 124.523 23.4277 124.619 22.9844C124.843 22.3614 124.949 21.6947 125.08 21.3832C126.482 17.9626 129.012 15.5327 131.729 13.19C134.453 11.1464 136.871 9.09658 139.588 6.7539C140.498 6.17446 141.102 5.29595 142.006 4.71028C142.311 4.12461 142.916 3.83178 143.215 3.24611C144.124 1.4891 142.591 -0.261685 140.498 0.0311495C138.08 0.323984 135.961 1.4891 133.848 2.95327C131.083 5.04116 128.725 7.61991 126.893 10.5608C125.08 13.4829 124.07 16.1308 122.755 19.2025C122.525 19.7853 122.358 20.391 122.257 21.0093C121.958 22.4735 121.796 23.8816 123.148 24.5171C123.422 24.6729 123.728 24.4798 124.027 24.1869Z" fill="#8ADD66"/>
<path d="M119.858 20.9782C120.031 20.4112 120.135 19.8255 120.169 19.2336C120.608 15.9521 121.445 12.7362 122.662 9.65731C123.285 8.2056 124.183 6.89719 124.843 5.29594C125.044 4.86978 125.196 4.42258 125.298 3.96261C125.588 3.0229 125.588 2.01759 125.298 1.07788C125.086 0.380059 123.672 -0.112155 123.048 0.174449C122.425 0.471436 121.842 0.843916 121.31 1.28349C119.44 2.7352 118.917 4.39874 117.982 6.45482C117.093 8.56637 116.668 10.8441 116.735 13.1339C116.735 15.7445 117.546 18.1184 118.605 20.972C118.779 21.4517 119.066 21.4829 119.315 21.4455C119.565 21.4081 119.671 21.3271 119.858 20.9782Z" fill="#227744"/>
<path d="M113.202 20.3115C113.022 20.0442 112.871 19.758 112.753 19.4579C111.761 17.5154 110.472 15.7392 108.933 14.1931C108.179 13.4579 107.357 13.0467 106.59 12.1558C106.216 11.7134 106.098 11.5763 105.967 11.4268C105.554 10.9448 105.304 10.3455 105.25 9.7134C105.265 9.40012 105.391 9.10235 105.606 8.87384C105.82 8.64533 106.11 8.50114 106.422 8.46729C106.857 8.38218 107.308 8.43443 107.712 8.61682C109.144 9.16774 110.448 10.0052 111.544 11.0779C112.613 12.1328 113.407 13.4335 113.856 14.866C114.417 16.4735 114.91 18.1994 114.212 20.1433C114.099 20.4548 114.149 20.5421 113.788 20.6667C113.582 20.7477 113.264 20.4984 113.202 20.3115Z" fill="#227744"/>
</g>
<defs>
<clipPath id="clip0_1_1475">
<rect width="245" height="72" fill="white"/>
</clipPath>
</defs>
</svg>
